<mxfile host="app.diagrams.net" modified="2024-07-18T00:00:28.972Z" agent="Mozilla/5.0 (Windows NT 10.0; Win64; x64) AppleWebKit/537.36 (KHTML, like Gecko) Chrome/126.0.0.0 Safari/537.36" etag="cgDdBydq1bLfIxiCmnTH" version="24.7.1" type="github">
  <diagram name="Page-1" id="eyqKQShA3c9NKJSTz52o">
    <mxGraphModel dx="1674" dy="780" grid="0" gridSize="10" guides="1" tooltips="1" connect="1" arrows="1" fold="1" page="1" pageScale="1" pageWidth="827" pageHeight="1169" math="0" shadow="0">
      <root>
        <mxCell id="0" />
        <mxCell id="1" parent="0" />
        <mxCell id="6AIJmFKDutBYR5fpDSLj-7" value="Mémoire du processus de la partie C++" style="shape=umlFrame;whiteSpace=wrap;html=1;pointerEvents=0;recursiveResize=0;container=1;collapsible=0;width=160;" vertex="1" parent="1">
          <mxGeometry x="270" y="330" width="500" height="360" as="geometry" />
        </mxCell>
        <mxCell id="6AIJmFKDutBYR5fpDSLj-1" value="Fil 1" style="rounded=1;whiteSpace=wrap;html=1;" vertex="1" parent="6AIJmFKDutBYR5fpDSLj-7">
          <mxGeometry x="210" y="125" width="50" height="30" as="geometry" />
        </mxCell>
        <mxCell id="6AIJmFKDutBYR5fpDSLj-2" value="Fil 2" style="rounded=1;whiteSpace=wrap;html=1;" vertex="1" parent="6AIJmFKDutBYR5fpDSLj-7">
          <mxGeometry x="280" y="125" width="50" height="30" as="geometry" />
        </mxCell>
        <mxCell id="6AIJmFKDutBYR5fpDSLj-4" value="Fil..." style="rounded=1;whiteSpace=wrap;html=1;" vertex="1" parent="6AIJmFKDutBYR5fpDSLj-7">
          <mxGeometry x="350" y="125" width="50" height="30" as="geometry" />
        </mxCell>
        <mxCell id="6AIJmFKDutBYR5fpDSLj-22" value="Vecteur" style="shape=umlFrame;whiteSpace=wrap;html=1;pointerEvents=0;recursiveResize=0;container=1;collapsible=0;width=160;" vertex="1" parent="6AIJmFKDutBYR5fpDSLj-7">
          <mxGeometry x="190" y="90" width="220" height="110" as="geometry" />
        </mxCell>
        <mxCell id="6AIJmFKDutBYR5fpDSLj-24" value="Classe RobotField" style="shape=umlFrame;whiteSpace=wrap;html=1;pointerEvents=0;recursiveResize=0;container=1;collapsible=0;width=160;" vertex="1" parent="6AIJmFKDutBYR5fpDSLj-7">
          <mxGeometry x="100" y="40" width="370" height="300" as="geometry" />
        </mxCell>
        <mxCell id="6AIJmFKDutBYR5fpDSLj-23" value="Attributs de classe" style="rounded=1;whiteSpace=wrap;html=1;" vertex="1" parent="6AIJmFKDutBYR5fpDSLj-24">
          <mxGeometry x="145" y="185" width="120" height="60" as="geometry" />
        </mxCell>
        <mxCell id="6AIJmFKDutBYR5fpDSLj-26" value="" style="edgeStyle=orthogonalEdgeStyle;rounded=0;orthogonalLoop=1;jettySize=auto;html=1;entryX=0.5;entryY=1;entryDx=0;entryDy=0;" edge="1" parent="6AIJmFKDutBYR5fpDSLj-7" source="6AIJmFKDutBYR5fpDSLj-23" target="6AIJmFKDutBYR5fpDSLj-1">
          <mxGeometry relative="1" as="geometry" />
        </mxCell>
        <mxCell id="6AIJmFKDutBYR5fpDSLj-27" style="edgeStyle=orthogonalEdgeStyle;rounded=0;orthogonalLoop=1;jettySize=auto;html=1;entryX=0.5;entryY=1;entryDx=0;entryDy=0;" edge="1" parent="6AIJmFKDutBYR5fpDSLj-7" target="6AIJmFKDutBYR5fpDSLj-2">
          <mxGeometry relative="1" as="geometry">
            <mxPoint x="305" y="220" as="sourcePoint" />
          </mxGeometry>
        </mxCell>
        <mxCell id="6AIJmFKDutBYR5fpDSLj-28" style="edgeStyle=orthogonalEdgeStyle;rounded=0;orthogonalLoop=1;jettySize=auto;html=1;exitX=0.5;exitY=0;exitDx=0;exitDy=0;entryX=0.5;entryY=1;entryDx=0;entryDy=0;" edge="1" parent="6AIJmFKDutBYR5fpDSLj-7" source="6AIJmFKDutBYR5fpDSLj-23" target="6AIJmFKDutBYR5fpDSLj-4">
          <mxGeometry relative="1" as="geometry" />
        </mxCell>
        <mxCell id="6AIJmFKDutBYR5fpDSLj-18" style="edgeStyle=orthogonalEdgeStyle;rounded=0;orthogonalLoop=1;jettySize=auto;html=1;exitX=1;exitY=1;exitDx=0;exitDy=0;entryX=0;entryY=1;entryDx=0;entryDy=0;" edge="1" parent="1" source="6AIJmFKDutBYR5fpDSLj-9" target="6AIJmFKDutBYR5fpDSLj-10">
          <mxGeometry relative="1" as="geometry" />
        </mxCell>
        <mxCell id="6AIJmFKDutBYR5fpDSLj-19" value="Nombre de robot&amp;nbsp;" style="edgeLabel;html=1;align=center;verticalAlign=middle;resizable=0;points=[];" vertex="1" connectable="0" parent="6AIJmFKDutBYR5fpDSLj-18">
          <mxGeometry x="-0.3176" y="1" relative="1" as="geometry">
            <mxPoint x="22" as="offset" />
          </mxGeometry>
        </mxCell>
        <mxCell id="6AIJmFKDutBYR5fpDSLj-9" value="Mémoire du processus de&amp;nbsp; la partie python" style="rounded=1;whiteSpace=wrap;html=1;" vertex="1" parent="1">
          <mxGeometry x="40" y="60" width="170" height="80" as="geometry" />
        </mxCell>
        <mxCell id="6AIJmFKDutBYR5fpDSLj-20" style="edgeStyle=orthogonalEdgeStyle;rounded=0;orthogonalLoop=1;jettySize=auto;html=1;exitX=0;exitY=0.25;exitDx=0;exitDy=0;entryX=1;entryY=0;entryDx=0;entryDy=0;" edge="1" parent="1" source="6AIJmFKDutBYR5fpDSLj-10" target="6AIJmFKDutBYR5fpDSLj-9">
          <mxGeometry relative="1" as="geometry">
            <Array as="points">
              <mxPoint x="330" y="40" />
              <mxPoint x="210" y="40" />
            </Array>
          </mxGeometry>
        </mxCell>
        <mxCell id="6AIJmFKDutBYR5fpDSLj-21" value="Information de chaque robot" style="edgeLabel;html=1;align=center;verticalAlign=middle;resizable=0;points=[];" vertex="1" connectable="0" parent="6AIJmFKDutBYR5fpDSLj-20">
          <mxGeometry x="-0.0919" y="2" relative="1" as="geometry">
            <mxPoint x="-21" y="-12" as="offset" />
          </mxGeometry>
        </mxCell>
        <mxCell id="6AIJmFKDutBYR5fpDSLj-10" value="Mémoire partagée" style="rounded=1;whiteSpace=wrap;html=1;" vertex="1" parent="1">
          <mxGeometry x="330" y="70" width="120" height="60" as="geometry" />
        </mxCell>
        <mxCell id="6AIJmFKDutBYR5fpDSLj-11" style="edgeStyle=orthogonalEdgeStyle;rounded=0;orthogonalLoop=1;jettySize=auto;html=1;exitX=0.25;exitY=1;exitDx=0;exitDy=0;" edge="1" parent="1" source="6AIJmFKDutBYR5fpDSLj-10">
          <mxGeometry relative="1" as="geometry">
            <mxPoint x="360" y="330" as="targetPoint" />
          </mxGeometry>
        </mxCell>
        <mxCell id="6AIJmFKDutBYR5fpDSLj-12" value="Nombre de robots" style="edgeLabel;html=1;align=center;verticalAlign=middle;resizable=0;points=[];" vertex="1" connectable="0" parent="6AIJmFKDutBYR5fpDSLj-11">
          <mxGeometry x="-0.1947" y="-1" relative="1" as="geometry">
            <mxPoint as="offset" />
          </mxGeometry>
        </mxCell>
        <mxCell id="6AIJmFKDutBYR5fpDSLj-15" value="" style="html=1;verticalAlign=bottom;labelBackgroundColor=none;endArrow=block;endFill=1;rounded=0;entryX=0.75;entryY=1;entryDx=0;entryDy=0;exitX=0.302;exitY=-0.008;exitDx=0;exitDy=0;exitPerimeter=0;" edge="1" parent="1" source="6AIJmFKDutBYR5fpDSLj-7" target="6AIJmFKDutBYR5fpDSLj-10">
          <mxGeometry width="160" relative="1" as="geometry">
            <mxPoint x="420" y="250" as="sourcePoint" />
            <mxPoint x="600" y="200" as="targetPoint" />
          </mxGeometry>
        </mxCell>
        <mxCell id="6AIJmFKDutBYR5fpDSLj-16" value="Information de chaque robot" style="edgeLabel;html=1;align=center;verticalAlign=middle;resizable=0;points=[];" vertex="1" connectable="0" parent="6AIJmFKDutBYR5fpDSLj-15">
          <mxGeometry x="-0.0469" y="-3" relative="1" as="geometry">
            <mxPoint x="17" y="33" as="offset" />
          </mxGeometry>
        </mxCell>
      </root>
    </mxGraphModel>
  </diagram>
</mxfile>
